<svg id="Layer_1" data-name="Layer 1" xmlns="http://www.w3.org/2000/svg" xmlns:xlink="http://www.w3.org/1999/xlink" viewBox="0 0 100 100">
  <defs>
    <pattern id="New_Pattern_Swatch_2" data-name="New Pattern Swatch 2" width="129.11" height="101.79" patternTransform="translate(77.71 127.2) scale(0.18)" patternUnits="userSpaceOnUse" viewBox="0 0 129.11 101.79">
      <rect width="129.11" height="101.79" fill="none"/>
      <rect width="129.11" height="101.79" fill="#bf00fe"/>
    </pattern>
  </defs>
  <title>logo-sketches</title>
  <path d="M38.76,40.74a9.74,9.74,0,0,1,3.14-7.62,11.8,11.8,0,0,1,8.2-2.82,11.29,11.29,0,0,1,8.1,2.87q3,2.88,3,8.28t-3.16,7.91q-3.17,2.51-9.65,2.56v7.49H44.94V49.18h1.74q5.64,0.05,8.39-1.61T57.81,41a7.36,7.36,0,0,0-2.06-5.56,7.88,7.88,0,0,0-5.7-2,8.28,8.28,0,0,0-5.75,1.9,6.86,6.86,0,0,0-2.11,5.38H38.76ZM45,68.94a2.55,2.55,0,1,1,1.82.76A2.48,2.48,0,0,1,45,68.94Z" fill="url(#New_Pattern_Swatch_2)"/>
</svg>
